<svg xmlns="http://www.w3.org/2000/svg" xmlns:xlink="http://www.w3.org/1999/xlink" width="423" zoomAndPan="magnify" viewBox="0 0 317.25 80.999996" height="108" preserveAspectRatio="xMidYMid meet" version="1.2"><defs><clipPath id="f32144e980"><path d="M 11.78125 23.753906 L 210.929688 23.753906 L 210.929688 57.011719 L 11.78125 57.011719 Z M 11.78125 23.753906 "/></clipPath></defs><g id="0dfcd9bb19"><g clip-rule="nonzero" clip-path="url(#f32144e980)"><path style=" stroke:none;fill-rule:nonzero;fill:#46deff;fill-opacity:1;" d="M 11.78125 23.753906 L 210.921875 23.753906 L 210.921875 57.011719 L 11.78125 57.011719 Z M 11.78125 23.753906 "/></g><g style="fill:#46deff;fill-opacity:1;"><g transform="translate(210.931155, 56.47024)"><path style="stroke:none" d="M 5.5 -7.015625 C 6.539062 -7.015625 7.425781 -6.644531 8.15625 -5.90625 C 8.894531 -5.175781 9.265625 -4.296875 9.265625 -3.265625 C 9.265625 -2.253906 8.894531 -1.378906 8.15625 -0.640625 C 7.425781 0.0859375 6.539062 0.453125 5.5 0.453125 C 4.5 0.453125 3.628906 0.0859375 2.890625 -0.640625 C 2.160156 -1.378906 1.796875 -2.253906 1.796875 -3.265625 C 1.796875 -4.296875 2.160156 -5.175781 2.890625 -5.90625 C 3.628906 -6.644531 4.5 -7.015625 5.5 -7.015625 Z M 5.5 -7.015625 "/></g></g><g style="fill:#46deff;fill-opacity:1;"><g transform="translate(219.557836, 56.47024)"><path style="stroke:none" d="M 2.890625 -32.125 L 9.21875 -32.125 L 25.1875 -11.328125 L 25.1875 -32.125 L 31.4375 -32.125 L 31.4375 0 L 25.5625 0 L 9.171875 -21.484375 L 9.171875 0 L 2.890625 0 Z M 2.890625 -32.125 "/></g></g><g style="fill:#46deff;fill-opacity:1;"><g transform="translate(251.49544, 56.47024)"><path style="stroke:none" d="M 34.78125 -16.015625 C 34.78125 -13.660156 34.375 -11.460938 33.5625 -9.421875 C 32.757812 -7.390625 31.644531 -5.644531 30.21875 -4.1875 C 28.789062 -2.738281 27.082031 -1.59375 25.09375 -0.75 C 23.113281 0.0820312 20.972656 0.5 18.671875 0.5 C 16.285156 0.5 14.050781 0.0703125 11.96875 -0.78125 C 9.894531 -1.632812 8.097656 -2.800781 6.578125 -4.28125 C 5.066406 -5.769531 3.867188 -7.523438 2.984375 -9.546875 C 2.097656 -11.566406 1.65625 -13.738281 1.65625 -16.0625 C 1.65625 -18.382812 2.085938 -20.554688 2.953125 -22.578125 C 3.828125 -24.597656 5.019531 -26.347656 6.53125 -27.828125 C 8.050781 -29.316406 9.847656 -30.488281 11.921875 -31.34375 C 14.003906 -32.195312 16.222656 -32.625 18.578125 -32.625 C 21.242188 -32.625 23.753906 -32.085938 26.109375 -31.015625 C 28.460938 -29.953125 30.40625 -28.484375 31.9375 -26.609375 L 27.3125 -22.34375 C 26.175781 -23.695312 24.863281 -24.734375 23.375 -25.453125 C 21.894531 -26.171875 20.296875 -26.53125 18.578125 -26.53125 C 17.140625 -26.53125 15.800781 -26.257812 14.5625 -25.71875 C 13.332031 -25.1875 12.265625 -24.453125 11.359375 -23.515625 C 10.453125 -22.585938 9.742188 -21.488281 9.234375 -20.21875 C 8.734375 -18.945312 8.484375 -17.5625 8.484375 -16.0625 C 8.484375 -14.5625 8.742188 -13.164062 9.265625 -11.875 C 9.785156 -10.59375 10.503906 -9.484375 11.421875 -8.546875 C 12.335938 -7.617188 13.429688 -6.882812 14.703125 -6.34375 C 15.972656 -5.8125 17.328125 -5.546875 18.765625 -5.546875 C 21.035156 -5.546875 22.988281 -6.171875 24.625 -7.421875 C 26.257812 -8.679688 27.273438 -10.289062 27.671875 -12.25 L 18.171875 -12.25 L 18.171875 -18.03125 L 34.78125 -18.03125 Z M 34.78125 -16.015625 "/></g></g><g style="fill:#001314;fill-opacity:1;"><g transform="translate(11.780151, 57.218471)"><path style="stroke:none" d="M 0.859375 -27.390625 L 0.859375 -33.53125 L 30.359375 -33.53125 L 30.359375 -27.390625 L 19.109375 -27.390625 L 19.109375 0 L 12.171875 0 L 12.171875 -27.390625 Z M 0.859375 -27.390625 "/></g></g><g style="fill:#001314;fill-opacity:1;"><g transform="translate(40.464292, 57.218471)"><path style="stroke:none" d="M 3.015625 0 L 3.015625 -33.53125 L 19.390625 -33.53125 C 21.085938 -33.53125 22.644531 -33.269531 24.0625 -32.75 C 25.488281 -32.238281 26.710938 -31.53125 27.734375 -30.625 C 28.753906 -29.71875 29.550781 -28.625 30.125 -27.34375 C 30.695312 -26.070312 30.984375 -24.664062 30.984375 -23.125 C 30.984375 -21.019531 30.382812 -19.132812 29.1875 -17.46875 C 27.988281 -15.8125 26.398438 -14.585938 24.421875 -13.796875 L 31.84375 0 L 24.09375 0 L 17.53125 -12.828125 L 9.96875 -12.828125 L 9.96875 0 Z M 18.765625 -27.53125 L 9.96875 -27.53125 L 9.96875 -18.53125 L 18.765625 -18.53125 C 20.335938 -18.53125 21.59375 -18.945312 22.53125 -19.78125 C 23.476562 -20.613281 23.953125 -21.695312 23.953125 -23.03125 C 23.953125 -24.375 23.476562 -25.457031 22.53125 -26.28125 C 21.59375 -27.113281 20.335938 -27.53125 18.765625 -27.53125 Z M 18.765625 -27.53125 "/></g></g><g style="fill:#001314;fill-opacity:1;"><g transform="translate(70.441373, 57.218471)"><path style="stroke:none" d="M -0.1875 0 L 13.59375 -33.53125 L 21.640625 -33.53125 L 35.25 0 L 27.734375 0 L 24.328125 -8.8125 L 10.484375 -8.8125 L 7.046875 0 Z M 12.640625 -14.375 L 22.21875 -14.375 L 17.484375 -26.71875 Z M 12.640625 -14.375 "/></g></g><g style="fill:#001314;fill-opacity:1;"><g transform="translate(102.956442, 57.218471)"><path style="stroke:none" d="M 3.015625 0 L 3.015625 -33.53125 L 15.90625 -33.53125 C 18.394531 -33.53125 20.722656 -33.097656 22.890625 -32.234375 C 25.054688 -31.367188 26.929688 -30.1875 28.515625 -28.6875 C 30.097656 -27.1875 31.34375 -25.394531 32.25 -23.3125 C 33.164062 -21.238281 33.625 -19.023438 33.625 -16.671875 C 33.625 -14.335938 33.164062 -12.148438 32.25 -10.109375 C 31.34375 -8.066406 30.097656 -6.300781 28.515625 -4.8125 C 26.929688 -3.332031 25.054688 -2.160156 22.890625 -1.296875 C 20.722656 -0.429688 18.394531 0 15.90625 0 Z M 15.859375 -27.34375 L 9.96875 -27.34375 L 9.96875 -6.171875 L 15.859375 -6.171875 C 17.328125 -6.171875 18.707031 -6.441406 20 -6.984375 C 21.289062 -7.535156 22.414062 -8.28125 23.375 -9.21875 C 24.332031 -10.15625 25.082031 -11.265625 25.625 -12.546875 C 26.164062 -13.828125 26.4375 -15.203125 26.4375 -16.671875 C 26.4375 -18.171875 26.164062 -19.570312 25.625 -20.875 C 25.082031 -22.1875 24.332031 -23.320312 23.375 -24.28125 C 22.414062 -25.238281 21.289062 -25.988281 20 -26.53125 C 18.707031 -27.070312 17.328125 -27.34375 15.859375 -27.34375 Z M 15.859375 -27.34375 "/></g></g><g style="fill:#001314;fill-opacity:1;"><g transform="translate(135.758833, 57.218471)"><path style="stroke:none" d="M 3.015625 0 L 3.015625 -33.53125 L 9.96875 -33.53125 L 9.96875 0 Z M 3.015625 0 "/></g></g><g style="fill:#001314;fill-opacity:1;"><g transform="translate(146.246023, 57.218471)"><path style="stroke:none" d="M 3.015625 0 L 3.015625 -33.53125 L 28.921875 -33.53125 L 28.921875 -27.484375 L 9.96875 -27.484375 L 9.96875 -19.59375 L 22.5625 -19.59375 L 22.5625 -13.75 L 9.96875 -13.75 L 9.96875 0 Z M 3.015625 0 "/></g></g><g style="fill:#001314;fill-opacity:1;"><g transform="translate(174.307635, 57.218471)"><path style="stroke:none" d="M 13.40625 0 L 13.40625 -12.828125 L -0.28125 -33.53125 L 7.703125 -33.53125 L 17.09375 -18.96875 L 26.53125 -33.53125 L 34.09375 -33.53125 L 20.359375 -12.78125 L 20.359375 0 Z M 13.40625 0 "/></g></g></g></svg>